<?xml version="1.0" encoding="utf-8"?>
<!-- Generator: Adobe Illustrator 18.0.0, SVG Export Plug-In . SVG Version: 6.00 Build 0)  -->
<!DOCTYPE svg PUBLIC "-//W3C//DTD SVG 1.1//EN" "http://www.w3.org/Graphics/SVG/1.1/DTD/svg11.dtd">
<svg version="1.1" id="VERT" xmlns="http://www.w3.org/2000/svg" xmlns:xlink="http://www.w3.org/1999/xlink" x="0px" y="0px"
	 viewBox="0 0 841.9 309" enable-background="new 0 0 841.9 309" xml:space="preserve">
<g>
	<path fill="#FFFFFF" d="M227.2,213.1H202v-39.4h11.1v-1.3L175.9,64.5h-35.4L91,212.6c-0.5,0.2-1,0.4-1.5,0.5H73.7v31.4h65.7v-31.4
		h-14.9l4.4-14.3h55.3l4.6,14.3h-12.1v31.4h65.7v-31.4L227.2,213.1L227.2,213.1z M136.3,174.6l20.1-65.3l20.2,65.3H136.3z"/>
	<path fill="#FFFFFF" d="M271.5,101.1c-4,0-8.4,1.2-13.2,3.5c-4.8,2.3-8.6,5.2-11.7,8.8v-12.9H232c-0.1,0-0.3,0-0.4,0c0,0,0,0-0.1,0
		l-21.9,4.4v20.4h11.1v55.9h-11.1v24.3h51.3v-24.3H249v-47.6c3.9-3.9,11-5.9,21.2-5.9c3,0,5.8,0.2,8.3,0.5v0l1.2,0.4v-26.6
		C278.2,101.5,275.5,101.1,271.5,101.1z"/>
	<g>
		<path fill="#FFFFFF" d="M258,220.4c-0.1-0.5,0.2-0.9,0.7-0.9h1.4c0.3,0,0.5,0.2,0.5,0.4l4.8,19.6h0.1l10.3-19.6
			c0.1-0.2,0.2-0.4,0.6-0.4h1.7c0.5,0,0.6,0.5,0.4,0.9L265.7,244c-0.1,0.2-0.3,0.4-0.6,0.4h-0.3c-0.2,0-0.4-0.2-0.5-0.4L258,220.4z"
			/>
		<path fill="#FFFFFF" d="M284.5,231.8c1-7,6.5-12.7,13.2-12.7c6.2,0,10.8,5.7,9.8,12.7c-1,7-6.5,12.6-13.2,12.6
			C288.1,244.4,283.6,238.8,284.5,231.8z M304.9,231.8c0.8-5.6-2.6-10.2-7.5-10.2c-4.9,0-9.6,4.6-10.4,10.2
			c-0.8,5.6,2.6,10.1,7.5,10.1C299.5,241.9,304.2,237.4,304.9,231.8z"/>
		<path fill="#FFFFFF" d="M319.4,220.1c0.1-0.3,0.4-0.7,0.7-0.7h1.5c0.3,0,0.6,0.3,0.5,0.7l-2,14.6c-0.6,4,1.2,7.1,4.7,7.1
			c3.6,0,6.3-3.3,6.8-7.1l2.1-14.7c0-0.3,0.4-0.7,0.7-0.7h1.5c0.3,0,0.6,0.3,0.5,0.7l-2.1,14.8c-0.7,5.3-4.1,9.4-9.8,9.4
			c-4.7,0-7.9-4.1-7.1-9.4L319.4,220.1z"/>
		<path fill="#FFFFFF" d="M344,240.3l0.6-0.6c0.4-0.4,0.7-0.6,1.1-0.2c0.5,0.6,2.1,2.5,5.1,2.5c2.3,0,4.6-2,4.6-4.2
			c0-2.2-1.6-3.5-4.6-5.2c-2.8-1.6-4.7-3.2-4.7-6.4c0-3,1.9-7.1,7.6-7.1c3.4,0,5.1,1.5,5.4,1.8c0.2,0.1,0.5,0.5,0,1.2l-0.4,0.6
			c-0.4,0.5-0.7,0.7-1.2,0.3c-0.7-0.6-2.5-1.5-4.2-1.5c-3.2,0-4.7,2.7-4.7,4.4c0,2,1.3,3.3,3.5,4.5c3.4,1.8,5.9,3.5,5.9,7.2
			c0,3.9-2.8,6.9-7.7,6.9c-3.9,0-6.2-2.6-6.6-3C343.8,241.1,343.6,240.8,344,240.3z"/>
		<path fill="#FFFFFF" d="M384.2,220.1c0-0.3,0.4-0.7,0.7-0.7h7.1c5.5,0,9.5,5.2,9.5,10.7c0,7.6-5.8,13.9-13,13.9h-7.2
			c-0.3,0-0.5-0.3-0.5-0.7L384.2,220.1z M388.3,241.6c5.6,0,10.2-4.8,10.2-11.4c0-4.8-2.9-8.4-7.4-8.4h-4.6l-2.8,19.8H388.3z"/>
		<path fill="#FFFFFF" d="M413.7,220.1c0-0.3,0.4-0.7,0.7-0.7h12.5c0.4,0,0.6,0.3,0.5,0.7l-0.1,1c0,0.4-0.4,0.7-0.7,0.7h-10.4
			l-1.2,8.6h8.9c0.3,0,0.6,0.3,0.5,0.7l-0.1,1c0,0.4-0.3,0.7-0.7,0.7h-8.9l-1.3,9h10.4c0.4,0,0.6,0.3,0.5,0.7l-0.1,1
			c0,0.4-0.4,0.7-0.7,0.7h-12.5c-0.4,0-0.6-0.3-0.5-0.7L413.7,220.1z"/>
		<path fill="#FFFFFF" d="M444.5,240.9l0.8-0.7c0.4-0.4,0.7-0.2,1.1,0.2c0.4,0.5,1.5,1.6,3,1.6c1.6,0,3.6-1.5,4.1-5.2l2.3-16.6
			c0-0.3,0.4-0.7,0.7-0.7h1.5c0.4,0,0.6,0.3,0.5,0.7l-2.3,16.6c-0.7,5.2-3,7.7-7.1,7.7c-2.7,0-4.3-1.8-4.8-2.5
			C444.2,241.5,444.3,241.1,444.5,240.9z"/>
		<path fill="#FFFFFF" d="M466.7,231.8c1-7,6.5-12.7,13.2-12.7c6.2,0,10.8,5.7,9.8,12.7c-1,7-6.5,12.6-13.2,12.6
			C470.3,244.4,465.8,238.8,466.7,231.8z M487.2,231.8c0.8-5.6-2.6-10.2-7.5-10.2c-4.9,0-9.6,4.6-10.4,10.2
			c-0.8,5.6,2.6,10.1,7.5,10.1C481.7,241.9,486.4,237.4,487.2,231.8z"/>
		<path fill="#FFFFFF" d="M501.6,220.1c0.1-0.3,0.4-0.7,0.7-0.7h1.5c0.4,0,0.6,0.3,0.5,0.7l-2,14.6c-0.6,4,1.2,7.1,4.7,7.1
			c3.6,0,6.2-3.3,6.8-7.1l2.1-14.7c0-0.3,0.4-0.7,0.7-0.7h1.5c0.3,0,0.6,0.3,0.5,0.7l-2.1,14.8c-0.7,5.3-4.1,9.4-9.8,9.4
			c-4.7,0-7.9-4.1-7.1-9.4L501.6,220.1z"/>
		<path fill="#FFFFFF" d="M530.5,220.1c0-0.3,0.4-0.7,0.7-0.7h12.5c0.4,0,0.6,0.3,0.5,0.7l-0.1,1c0,0.4-0.4,0.7-0.7,0.7H533
			l-1.2,8.6h8.9c0.3,0,0.6,0.3,0.5,0.7l-0.1,1c0,0.4-0.4,0.7-0.7,0.7h-8.9l-1.3,9h10.4c0.4,0,0.6,0.3,0.5,0.7l-0.1,1
			c0,0.4-0.4,0.7-0.7,0.7h-12.5c-0.4,0-0.6-0.3-0.5-0.7L530.5,220.1z"/>
		<path fill="#FFFFFF" d="M555,220.1c0-0.3,0.4-0.7,0.7-0.7h7.9c3.9,0,6.4,3.1,6.4,6.8c0,3.4-2.3,6.7-5.8,7.8l3.1,8.9
			c0.2,0.5-0.1,1-0.6,1h-1.7c-0.2,0-0.4-0.2-0.5-0.3l-2.9-9.3h-5.9l-1.3,8.9c0,0.4-0.4,0.7-0.7,0.7h-1.5c-0.3,0-0.6-0.3-0.5-0.7
			L555,220.1z M561.8,232.1c3,0,5.4-2.6,5.4-5.8c0-2.3-1.6-4.3-3.9-4.3h-5.7l-1.4,10.1H561.8z"/>
	</g>
	<path fill="#C7D530" d="M638.7,66.7v146.1h15.3l50.8,31.1H587.2v-31.1h14.5V100.1h-14.5V73.6L638.7,66.7z"/>
	<linearGradient id="SVGID_1_" gradientUnits="userSpaceOnUse" x1="613.6992" y1="81.474" x2="624.8064" y2="100.7921">
		<stop  offset="0" style="stop-color:#AAB62A"/>
		<stop  offset="1" style="stop-color:#C7D530"/>
	</linearGradient>
	<polygon fill="url(#SVGID_1_)" points="601.7,100.1 638.7,66.7 638.7,118.8 601.7,118.8 	"/>
	<linearGradient id="SVGID_2_" gradientUnits="userSpaceOnUse" x1="685.5256" y1="228.3521" x2="646.2725" y2="228.3521">
		<stop  offset="0" style="stop-color:#AAB62A"/>
		<stop  offset="1" style="stop-color:#C7D530"/>
	</linearGradient>
	<polygon fill="url(#SVGID_2_)" points="632.5,212.8 647.7,212.8 704.7,243.9 620.2,243.9 	"/>
	<path fill="#C7D530" d="M653.4,111.6c0-14.8,4.8-26.2,14.3-34.1c9.5-7.9,23-11.9,40.4-11.9c17.4,0,30.4,3.5,39,10.5
		c8.6,7,12.9,17.9,12.9,32.7c0,6.6-1.9,13.3-5.6,20.3c-3.7,7-8.2,12.8-13.4,17.5c9.1,6,15.9,12.2,20.4,18.3
		c4.5,6.1,6.8,14.4,6.8,24.6c0,16.8-5.6,30.1-16.8,39.7c-11.2,9.7-26.7,14.5-46.7,14.5c-19.9,0-34.9-4.1-44.8-12.4
		c-9.9-8.2-14.9-21-14.9-38.1c0-9.1,2.3-17.5,7.1-25.1c4.7-7.7,11.1-13.9,19.2-18.8c-6.1-5.4-10.6-10.9-13.5-16.4
		C654.8,127.5,653.4,120.4,653.4,111.6z M681.9,190.4c0,18.7,8.2,28,24.7,28c16.5,0,24.7-7.9,24.7-23.7c0-8.7-3.2-15.6-9.6-20.4
		c-5-3.7-10.4-6.6-15.9-8.8c-5.6-2.2-9-3.6-10.4-4.3C686.4,168.8,681.9,178.6,681.9,190.4z M706.5,88.4c-7,0-12.3,1.7-15.9,5
		c-3.6,3.4-5.4,7.5-5.4,12.4c0,4.9,0.6,8.7,1.9,11.5c1.3,2.8,3.2,5.1,5.9,7.1c2.7,1.9,5,3.5,7.1,4.5c2,1.1,4.9,2.4,8.7,3.8l7.7,3.2
		c7.7-7.7,11.6-15.9,11.6-24.3c0-8.5-1.9-14.5-5.6-17.9C718.8,90.1,713.5,88.4,706.5,88.4z"/>
	<linearGradient id="SVGID_3_" gradientUnits="userSpaceOnUse" x1="730.8181" y1="140.5598" x2="740.6432" y2="123.3099">
		<stop  offset="0" style="stop-color:#AAB62A"/>
		<stop  offset="1" style="stop-color:#C7D530"/>
	</linearGradient>
	<path fill="url(#SVGID_3_)" d="M716.4,135.9c9,3.7,13.5,4.4,24.5,10.9c0,0,8.5-7.2,14.4-19.7c0,0-26.6-15.6-28.1-9.1
		C725,127.9,716.4,135.9,716.4,135.9z"/>
	
		<linearGradient id="SVGID_4_" gradientUnits="userSpaceOnUse" x1="436.8645" y1="493.3066" x2="448.8623" y2="472.2422" gradientTransform="matrix(-0.9786 -0.2056 0.2056 -0.9786 1010.5388 728.8123)">
		<stop  offset="0" style="stop-color:#AAB62A"/>
		<stop  offset="1" style="stop-color:#C7D530"/>
	</linearGradient>
	<path fill="url(#SVGID_4_)" d="M695.5,161.1c-10.6-5.1-15-4.5-24.2-11.6c0,0-10.8,6-18.5,17.7c0,0,28.8,23.2,29.6,16.6
		C684,169.9,695.5,161.1,695.5,161.1z"/>
	<path fill="#FFFFFF" d="M483.9,175.5c-0.1,0-0.1-0.1-0.2-0.1v-38.1c0-15-2.6-25.5-7.8-31.6c-5.2-6.1-14.3-9.1-27.3-9.1
		c-5,0-10.3,0.9-15.8,2.7c-5.4,1.8-9.7,4-13,6.7V95.8h-14.3c-0.1,0-0.3,0-0.4,0c0,0-0.1,0-0.1,0l-21.6,4.4v20.1h10.9v55.2
		c-0.1,0-0.1,0.1-0.2,0.1h-10.7v23.5h49.8v-23.5h-10.9c-0.1,0-0.1-0.1-0.2-0.1v-51c6-4.2,11.9-6.4,17.9-6.4c5.9,0,10.1,1.2,12.4,3.7
		c2.3,2.5,3.5,7.2,3.5,14.4v39.3c-0.1,0-0.1,0.1-0.2,0.1h-10.9v23.5h74l-24.2-23.5H483.9z"/>
	<path fill="#FFFFFF" d="M375.5,139.9c0-16.3-3.3-27.6-9.8-33.8c-6.6-6.3-16-9.4-28.3-9.4c-12.3,0-23.1,3.7-32.4,11.1
		c-4.8,3.8-8.5,9.3-11.3,16.4c-2.8,7.1-4.2,15.5-4.2,25.3c0,16.1,4,28.5,12,36.9c7.7,8.1,19,12.3,34,12.6l-0.1,0.1h40.1v-29.2h-23.5
		v6.3c-3,0.5-6,0.9-9.2,0.9c-8.2,0-14.2-1.7-18-5.2c-3.8-3.4-5.9-9.3-6.5-17.7h20.9v0.1h36.3V140h0C375.4,140,375.5,140,375.5,139.9
		z M350.2,136.5h-0.4h-22.5h-8.7c1-6.8,2.7-11.8,5.4-14.8c2.8-3.2,6.8-4.8,12-4.8c5.2,0,8.9,1.5,11,4.5c2,2.8,3,5.4,3.1,7.9h0v0.4
		c0,0,0,0.1,0,0.1c0,0.1,0,0.3,0,0.4V136.5z"/>
	<path fill="#FFFFFF" d="M576.3,173.6v-42.3c0-12.4-3.1-21.3-9.2-26.7c-6.2-5.4-16.3-8-30.5-8c-14.2,0-27.4,3.3-39.7,9.9h-0.2v24.2
		h3.4h19.5h2.3v-11.9c0-0.4,0.1-0.7,0.1-1c2.6-0.8,6-1.2,10.1-1.2c11,0,16.5,5.2,16.5,15.5v9.5h-21.6c-11.6,0-20.4,2.5-26.3,7.6
		c-5.9,5.1-8.8,12.1-8.8,21c0,8.9,3.1,15.9,9.4,21c6.3,5.2,13.9,7.8,22.7,7.8c15,0,25.3-4.2,31-12.5v12.5h32.4v-4.8V177v-3.4H576.3z
		 M548.5,172.9c-4,4-9.3,6-16.1,6c-4,0-7-1.1-9-3.2c-2.1-2.1-3.1-4.8-3.1-8.1c0-7.3,4.8-10.9,14.3-10.9h13.9V172.9z"/>
</g>
</svg>
