<svg xmlns="http://www.w3.org/2000/svg" xmlns:xlink="http://www.w3.org/1999/xlink" viewBox="0 0 303.05 63.8">
<defs>
<polygon id="path1" points="9.23,27.66 17.74,27.66 2.93,43.08 14.75,43.08 33.67,23.39 52.58,43.08 64.4,43.08 49.59,27.66 58.1,27.66 33.67,2.22"/>
<polygon id="path2" points="3.01,59.64 64.33,59.64 33.67,27.72"/>
</defs>
<clipPath id="clippath1"><use xlink:href="#path1" style="overflow:visible;"/></clipPath>
<clipPath id="clippath2"><use xlink:href="#path2" style="overflow:visible;"/></clipPath>
<radialGradient id="gradient" cx="204.0183" cy="9.2076" r="1" gradientTransform="matrix(0 75.9422 -75.9422 0 733.3748 -15501.0977)" gradientUnits="userSpaceOnUse">
<stop offset="0" style="stop-color:#FFED00"/>
<stop offset="0.1018" style="stop-color:#E6E30B"/>
<stop offset="0.3171" style="stop-color:#A6C828"/>
<stop offset="0.3568" style="stop-color:#9AC32E"/>
<stop offset="0.4217" style="stop-color:#95BF30"/>
<stop offset="0.5003" style="stop-color:#86B536"/>
<stop offset="0.5859" style="stop-color:#6EA33F"/>
<stop offset="0.6767" style="stop-color:#4B8B4D"/>
<stop offset="0.7704" style="stop-color:#206C5E"/>
<stop offset="0.8304" style="stop-color:#00556A"/>
<stop offset="1" style="stop-color:#00556A"/>
</radialGradient>
<rect x="2.93" y="2.22" style="clip-path:url(#clippath1);fill:url(#gradient);" width="61.47" height="40.86"/>
<rect x="3.01" y="27.72" style="clip-path:url(#clippath2);fill:url(#gradient);" width="61.32" height="31.92"/>
<g fill="#00556A" id="run">
<path d="M86.79,43.03l-3.86-14.49h-2.76v14.49h-5.32V7.92h8.33c2.54,0,4.56,0.76,6.07,2.28c1.5,1.52,2.26,3.55,2.26,6.09v3.86c0,1.6-0.32,3.03-0.95,4.26c-0.63,1.24-1.54,2.21-2.71,2.91l4.46,15.7L86.79,43.03L86.79,43.03L86.79,43.03z M80.17,23.52h2.76c1.04,0,1.84-0.28,2.41-0.85s0.85-1.37,0.85-2.41V16.2c0-1.04-0.28-1.84-0.85-2.41s-1.37-0.85-2.41-0.85h-2.76V23.52z"/>
<path d="M98.28,41.25c-1.54-1.52-2.31-3.5-2.31-5.94V7.92h5.32V35.3c0,1,0.28,1.79,0.83,2.36s1.26,0.85,2.13,0.85c0.87,0,1.58-0.28,2.13-0.85c0.55-0.57,0.83-1.35,0.83-2.36V7.92h5.21V35.3c0,2.44-0.75,4.42-2.26,5.94c-1.5,1.52-3.48,2.28-5.92,2.28C101.8,43.53,99.82,42.77,98.28,41.25"/>
<polygon points="117.53,7.92 123.4,7.92 130.17,31.49 130.17,7.92 135.39,7.92 135.39,43.03 129.77,43.03 122.75,20.56 122.75,43.03 117.53,43.03"/>
</g>
<g fill="#99C32E" id="aventure">
<path class="st1" d="M151.18,35.25h-5.72l-1.15,7.77h-5.32l5.82-35.1h7.12l5.82,35.1h-5.42L151.18,35.25z M150.48,30.14l-2.16-14.69l-2.16,14.69C146.16,30.14,150.48,30.14,150.48,30.14z"/>
<polygon class="st1" points="177.31,7.92 171.5,43.03 164.38,43.03 158.56,7.92 163.97,7.92 167.99,35.51 172,7.92"/><polygon class="st1" points="180.92,7.92 196.02,7.92 196.02,12.94 186.24,12.94 186.24,22.72 194.01,22.72 194.01,27.73 186.24,27.73 186.24,38.01 196.02,38.01 196.02,43.03 180.92,43.03"/>
<polygon class="st1" points="199.98,7.92 205.85,7.92 212.62,31.49 212.62,7.92 217.83,7.92 217.83,43.03 212.22,43.03 205.2,20.56 205.2,43.03 199.98,43.03"/>
<polygon class="st1" points="221.44,7.92 238.4,7.92 238.4,12.94 232.58,12.94 232.58,43.03 227.26,43.03 227.26,12.94 221.44,12.94"/>
<path class="st1" d="M244.11,41.25c-1.54-1.52-2.31-3.5-2.31-5.94V7.92h5.32V35.3c0,1,0.28,1.79,0.83,2.36s1.26,0.85,2.13,0.85c0.87,0,1.58-0.28,2.13-0.85s0.83-1.35,0.83-2.36V7.92h5.22V35.3c0,2.44-0.75,4.42-2.26,5.94c-1.51,1.52-3.48,2.28-5.92,2.28C247.64,43.53,245.65,42.77,244.11,41.25"/>
<path class="st1" d="M275.3,43.03l-3.86-14.49h-2.76v14.49h-5.32V7.92h8.33c2.54,0,4.56,0.76,6.07,2.28s2.26,3.55,2.26,6.09v3.86c0,1.6-0.32,3.03-0.95,4.26c-0.64,1.24-1.54,2.21-2.71,2.91l4.46,15.7L275.3,43.03L275.3,43.03L275.3,43.03z M268.68,23.52h2.76c1.04,0,1.84-0.28,2.41-0.85s0.85-1.37,0.85-2.41V16.2c0-1.04-0.28-1.84-0.85-2.41s-1.37-0.85-2.41-0.85h-2.76V23.52z"/>
<polygon class="st1" points="284.68,7.92 299.78,7.92 299.78,12.94 290,12.94 290,22.72 297.77,22.72 297.77,27.73 290,27.73 290,38.01 299.78,38.01 299.78,43.03 284.68,43.03"/>
</g>
<g fill="#00556A" id="specialiste">
<path d="M77.01,59.68c-2.08,0-2.47-1.7-2.39-3.64h1.68c0,1.07,0.03,1.97,0.96,1.97c0.57,0,0.85-0.51,0.85-1.27c0-2.01-3.39-2.14-3.39-5.47c0-1.75,0.6-3.14,2.65-3.14c1.64,0,2.45,1.02,2.34,3.36h-1.64c0-0.84-0.1-1.69-0.78-1.69c-0.55,0-0.87,0.42-0.87,1.19c0,2.12,3.39,1.94,3.39,5.45C79.82,59.33,78.3,59.68,77.01,59.68"/>
<path d="M81.26,48.31h3.03c1.54,0,2.14,1.3,2.14,3.35c0,1.27-0.27,3.28-2.24,3.28h-1.25v4.55h-1.68V48.31z M82.94,53.22h0.94c0.5,0,0.85-0.76,0.85-1.5c0-0.91-0.18-1.69-0.94-1.69h-0.85C82.94,50.03,82.94,53.22,82.94,53.22z"/>
<path d="M87.67,59.49V48.31h4.39v1.72h-2.71v2.76h2.5v1.72h-2.5v3.27h2.8v1.72h-4.48V59.49z M91.31,44.95l-1.78,2.21h-0.72l1-2.21H91.31z"/>
<path d="M93.39,53.9c0-2.96,0-5.78,2.78-5.78c1.72,0,2.41,1.32,2.34,3.72h-1.65c0-1.49-0.19-2.05-0.69-2.05c-0.95,0-1.07,1.24-1.07,4.1c0,2.87,0.12,4.1,1.07,4.1c0.78,0,0.75-1.39,0.77-2.28h1.66c0,2.99-0.86,3.95-2.43,3.95C93.39,59.68,93.39,56.83,93.39,53.9"/>
<rect x="99.89" y="48.31" width="1.68" height="11.18"/>
<path d="M102.6,59.49l2.23-11.18h2.22l2.19,11.18h-1.77l-0.46-2.48h-2.3l-0.46,2.48H102.6z M105.84,50.46h-0.02l-0.77,4.83h1.61L105.84,50.46z"/>
<polygon points="110.26,59.49 110.26,48.31 111.94,48.31 111.94,57.63 114.46,57.63 114.46,59.49"/>
<rect x="115.42" y="48.31" width="1.68" height="11.18"/>
<path d="M120.93,59.68c-2.08,0-2.47-1.7-2.39-3.64h1.68c0,1.07,0.03,1.97,0.96,1.97c0.57,0,0.85-0.51,0.85-1.27c0-2.01-3.39-2.14-3.39-5.47c0-1.75,0.6-3.14,2.65-3.14c1.64,0,2.45,1.02,2.34,3.36h-1.64c0-0.84-0.1-1.69-0.78-1.69c-0.55,0-0.87,0.42-0.87,1.19c0,2.12,3.39,1.94,3.39,5.45C123.74,59.33,122.21,59.68,120.93,59.68"/>
<polygon points="129.96,48.31 129.96,50.17 128.08,50.17 128.08,59.49 126.4,59.49 126.4,50.17 124.53,50.17 124.53,48.31"/>
<polygon points="130.96,59.49 130.96,48.31 135.35,48.31 135.35,50.03 132.65,50.03 132.65,52.78 135.14,52.78 135.14,54.5 132.65,54.5 132.65,57.77 135.44,57.77 135.44,59.49"/>
</g>
<g fill="#99C32E" id="running-trail-tri-outdoor">
<path d="M140.14,54.35v5.14h-1.18V48.31h3.2c1.65,0,2.22,1.39,2.22,2.79c0,1.32-0.6,2.32-1.7,2.56v0.03c1.07,0.2,1.45,0.64,1.52,2.88c0.01,0.48,0.14,2.23,0.32,2.93h-1.23c-0.33-0.77-0.26-2.23-0.36-3.72c-0.09-1.36-1-1.42-1.4-1.42h-1.39C140.14,54.36,140.14,54.35,140.14,54.35z M140.14,53.11h1.77c0.85,0,1.26-0.88,1.26-1.86c0-0.81-0.33-1.7-1.25-1.7h-1.79L140.14,53.11L140.14,53.11z"/>
<path d="M145.96,48.31h1.18v7.15c0,2.45,0.62,3.07,1.74,3.07s1.73-0.62,1.73-3.07v-7.15h1.18v7.09c0,3.1-0.95,4.32-2.92,4.32s-2.92-1.22-2.92-4.32v-7.09H145.96z"/>
<polygon points="160.14,48.31 160.14,59.49 158.53,59.49 154.86,49.8 154.84,49.8 154.84,59.49 153.78,59.49 153.78,48.31 155.45,48.31 159.07,57.88 159.09,57.88 159.09,48.31"/>
<polygon points="168.59,48.31 168.59,59.49 166.97,59.49 163.31,49.8 163.28,49.8 163.28,59.49 162.23,59.49 162.23,48.31 163.9,48.31 167.51,57.88 167.53,57.88 167.53,48.31"/>
<rect x="170.76" y="48.31" width="1.18" height="11.18"/>
<polygon points="180.48,48.31 180.48,59.49 178.86,59.49 175.2,49.8 175.17,49.8 175.17,59.49 174.12,59.49 174.12,48.31 175.79,48.31 179.4,57.88 179.42,57.88 179.42,48.31"/>
<path d="M186.94,51.3c0-1.32-0.45-2.03-1.65-2.03c-0.37,0-1.71,0.08-1.71,2.42v3.78c0,2.45,0.59,3.07,1.71,3.07c0.85,0,1.41-0.28,1.66-0.49V54.7h-1.71v-1.24h2.89v5.44c-0.76,0.5-1.65,0.84-2.84,0.84c-1.97,0-2.92-1.22-2.92-4.32v-3.67c0-2.23,0.95-3.66,2.92-3.66c2,0,2.96,0.88,2.88,3.22h-1.23L186.94,51.3L186.94,51.3z"/>
<rect x="189.9" y="54.67" width="2.83" height="1.19"/>
<polygon points="199.57,48.31 199.57,49.55 197.13,49.55 197.13,59.49 195.95,59.49 195.95,49.55 193.51,49.55 193.51,48.31"/>
<path d="M201.82,54.35v5.14h-1.18V48.31h3.2c1.65,0,2.22,1.39,2.22,2.79c0,1.32-0.6,2.32-1.7,2.56v0.03c1.07,0.2,1.45,0.64,1.52,2.88c0.01,0.48,0.14,2.23,0.32,2.93h-1.23c-0.33-0.77-0.26-2.23-0.36-3.72c-0.09-1.36-1-1.42-1.4-1.42h-1.39L201.82,54.35L201.82,54.35z M201.82,53.11h1.77c0.85,0,1.26-0.88,1.26-1.86c0-0.81-0.33-1.7-1.25-1.7h-1.79L201.82,53.11L201.82,53.11z"/>
<path d="M209.78,48.31h1.5l3.02,11.18h-1.32l-0.67-2.66h-3.58l-0.69,2.66h-1.2L209.78,48.31z M210.5,49.63h-0.03l-1.45,5.96h2.97L210.5,49.63z"/>
<rect x="215.56" y="48.31" width="1.18" height="11.18"/>
<polygon points="218.85,59.49 218.85,48.31 220.04,48.31 220.04,58.25 223.44,58.25 223.44,59.49"/>
<rect x="224.11" y="54.67" width="2.83" height="1.19"/>
<polygon points="233.79,48.31 233.79,49.55 231.35,49.55 231.35,59.49 230.16,59.49 230.16,49.55 227.72,49.55 227.72,48.31"/>
<path d="M236.04,54.35v5.14h-1.18V48.31h3.2c1.65,0,2.22,1.39,2.22,2.79c0,1.32-0.6,2.32-1.7,2.56v0.03c1.07,0.2,1.45,0.64,1.52,2.88c0.01,0.48,0.14,2.23,0.32,2.93h-1.23c-0.33-0.77-0.26-2.23-0.36-3.72c-0.09-1.36-1-1.42-1.4-1.42h-1.39L236.04,54.35L236.04,54.35z M236.04,53.11h1.77c0.85,0,1.26-0.88,1.26-1.86c0-0.81-0.33-1.7-1.25-1.7h-1.79L236.04,53.11L236.04,53.11z"/>
<rect x="242.05" y="48.31" width="1.18" height="11.18"/>
<rect x="245.02" y="54.67" width="2.83" height="1.19"/>
<path d="M249.45,55.4v-3.67c0-2.23,0.95-3.65,2.92-3.65s2.92,1.42,2.92,3.65v3.67c0,3.1-0.95,4.32-2.92,4.32S249.45,58.5,249.45,55.4 M254.08,55.46v-3.78c0-2.34-1.34-2.42-1.71-2.42s-1.71,0.08-1.71,2.42v3.78c0,2.45,0.59,3.07,1.71,3.07S254.08,57.91,254.08,55.46"/>
<path d="M257.18,48.31h1.18v7.15c0,2.45,0.62,3.07,1.74,3.07s1.73-0.62,1.73-3.07v-7.15h1.18v7.09c0,3.1-0.95,4.32-2.92,4.32s-2.92-1.22-2.92-4.32v-7.09H257.18z"/>
<polygon points="270.14,48.31 270.14,49.55 267.7,49.55 267.7,59.49 266.52,59.49 266.52,49.55 264.08,49.55 264.08,48.31"/>
<path d="M271.26,48.31h2.85c1.18,0,2.03,0.51,2.49,1.7c0.37,0.94,0.41,3.17,0.41,3.53c0,2.38-0.18,3.76-0.57,4.51c-0.5,0.96-1.44,1.44-3.06,1.44h-2.13V48.31H271.26z M272.45,58.25h1.12c1.65,0,2.25-0.74,2.25-3.34v-2.26c0-2.26-0.58-3.1-1.81-3.1h-1.55L272.45,58.25L272.45,58.25z"/>
<path d="M278.92,55.4v-3.67c0-2.23,0.95-3.65,2.92-3.65s2.92,1.42,2.92,3.65v3.67c0,3.1-0.95,4.32-2.92,4.32S278.92,58.5,278.92,55.4 M283.55,55.46v-3.78c0-2.34-1.34-2.42-1.71-2.42s-1.71,0.08-1.71,2.42v3.78c0,2.45,0.59,3.07,1.71,3.07S283.55,57.91,283.55,55.46"/>
<path d="M286.65,55.4v-3.67c0-2.23,0.95-3.65,2.92-3.65s2.92,1.42,2.92,3.65v3.67c0,3.1-0.95,4.32-2.92,4.32S286.65,58.5,286.65,55.4 M291.27,55.46v-3.78c0-2.34-1.34-2.42-1.71-2.42s-1.71,0.08-1.71,2.42v3.78c0,2.45,0.59,3.07,1.71,3.07S291.27,57.91,291.27,55.46"/>
<path d="M295.57,54.35v5.14h-1.18V48.31h3.2c1.64,0,2.22,1.39,2.22,2.79c0,1.32-0.6,2.32-1.7,2.56v0.03c1.07,0.2,1.45,0.64,1.52,2.88c0.01,0.48,0.14,2.23,0.32,2.93h-1.23c-0.33-0.77-0.26-2.23-0.36-3.72c-0.09-1.36-1-1.42-1.4-1.42h-1.39V54.35z M295.57,53.11h1.77c0.85,0,1.26-0.88,1.26-1.86c0-0.81-0.33-1.7-1.25-1.7h-1.79v3.56H295.57z"/>
</g>
</svg>