<svg width="452" height="649" viewBox="0 0 452 649" version="1.1" xmlns="http://www.w3.org/2000/svg" xmlns:xlink="http://www.w3.org/1999/xlink"><title>Logo</title><defs><circle id="path-1" cx="56" cy="56" r="56"/><mask id="mask-2" maskContentUnits="userSpaceOnUse" maskUnits="objectBoundingBox" x="0" y="0" width="112" height="112" fill="#fff"><use xlink:href="#path-1"/></mask><ellipse id="path-3" cx="25.565" cy="25.565" rx="25.565" ry="25.565"/><mask id="mask-4" maskContentUnits="userSpaceOnUse" maskUnits="objectBoundingBox" x="0" y="0" width="51.13" height="51.13" fill="#fff"><use xlink:href="#path-3"/></mask></defs><g id="Page-1" stroke="none" stroke-width="1" fill="none" fill-rule="evenodd"><g id="Logo"><g id="Header"><path id="Bleu-clair" fill="#C3E2F7" d="M0 0h410v340H0z"/><text id="Montagnarde" font-family="Arial-BoldMT, Arial" font-size="44" font-weight="bold" letter-spacing="1.9" fill="#254E9D"><tspan x="21" y="248">MONTAGNARDE</tspan></text><g id="Ballon" transform="translate(136 60)"><circle id="Oval-1" fill="#FFF" cx="69" cy="69" r="69"/><g id="Group-3" transform="translate(15 13)"><use id="Oval-2" stroke="#234E9C" mask="url(#mask-2)" stroke-width="4" xlink:href="#path-1"/><path d="M25.5 12.5l22 34" id="Line" stroke="#294C9C" stroke-width="2" stroke-linecap="square"/><path d="M83.788 14.992L61.087 48.528" id="Line-Copy" stroke="#294C9C" stroke-width="2" stroke-linecap="square"/><path d="M36.5 63.5l-22 6" id="Line-Copy-2" stroke="#294C9C" stroke-width="2" stroke-linecap="square"/><path d="M55.5 78.5l1 20" id="Line-Copy-3" stroke="#294C9C" stroke-width="2" stroke-linecap="square"/><path d="M75.5 64.5l19 8" id="Line-Copy-4" stroke="#294C9C" stroke-width="2" stroke-linecap="square"/></g><path d="M61.58 137.798l-9.085-16.503 18.935-10.694 20.346 9.61-4.4 15.12s-5.344 2.467-14.16 2.467" id="Path-10" fill="#C3000A"/><path id="Path-12" fill="#C4010A" d="M126.362 108.96l-16.978-.062-.482-23.802 16.921-12.732 11.564 12.242z"/><path d="M110.108 13.653c3.398 2.525 10.08 8.94 10.08 8.94l-2.511 16.925-25.385-1.866-9.803-22.57 16.433-8.29s7.496 4.118 11.186 6.86z" id="Path-13" fill="#C4010A"/><path d="M28.584 12.915c-3.334 2.427-8.959 7.884-8.959 7.884l4.52 18.859 23.762-2.717 9.174-21.344-18.503-8.594s-7.01 3.74-9.994 5.912z" id="Path-14" fill="#C4000A"/><path d="M5.81 97.153c-2.054-4.745-4.16-12.969-4.16-12.969L15.691 68.59l16.626 13.12-3.017 23.46-17.511 2.44s-4.654-7.393-5.98-10.457z" id="Path-11" fill="#C4000A"/><circle id="Oval-1-Copy" stroke="#274C9C" stroke-width="1.5" cx="69" cy="69" r="69"/><path id="Polygon-1" fill="#C4000A" transform="rotate(-35 68.75 69.958)" d="M69.83 49.908L89.673 63.41l-6.597 26.599H56.91L47.825 64.29z"/></g><g id="Union-Sportive" transform="translate(52 16)"><path d="M.096 51.987l3.858-2.55 6.844 10.347c1.086 1.642 1.837 2.675 2.255 3.098.682.673 1.49 1.04 2.425 1.104.934.062 1.94-.263 3.017-.975 1.095-.724 1.773-1.494 2.033-2.31.26-.814.23-1.585-.087-2.311-.318-.727-.977-1.846-1.977-3.358l-6.99-10.57 3.858-2.55 6.636 10.035c1.517 2.294 2.485 3.983 2.903 5.068.417 1.085.562 2.138.432 3.16-.13 1.023-.535 2.038-1.218 3.045-.683 1.007-1.78 2.01-3.292 3.01-1.824 1.207-3.347 1.911-4.569 2.114-1.221.202-2.328.147-3.32-.164-.993-.312-1.82-.78-2.483-1.403-.976-.928-2.17-2.46-3.584-4.598L.097 51.987zm33.638 6.36l-11.38-19.88 3.905-2.235 15.736 8.618-7.6-13.276 3.729-2.135 11.38 19.88-4.027 2.305-15.436-8.376 7.422 12.964-3.73 2.135zm21.543-11.248l-10.038-20.59 4.158-2.027 10.037 20.59-4.157 2.027zm3.968-14.292c-.957-2.128-1.442-4.057-1.456-5.787a10.78 10.78 0 0 1 .657-3.74c.441-1.214 1.06-2.246 1.854-3.095 1.054-1.136 2.43-2.087 4.131-2.852 3.078-1.385 5.97-1.538 8.677-.46s4.825 3.318 6.355 6.719c1.517 3.372 1.787 6.423.81 9.152-.976 2.73-2.998 4.785-6.067 6.165-3.106 1.398-6.002 1.561-8.688.491-2.686-1.07-4.777-3.268-6.273-6.593zm4.282-2.098c1.064 2.366 2.417 3.913 4.059 4.642 1.641.73 3.303.716 4.984-.04 1.682-.757 2.79-1.983 3.322-3.68.534-1.696.255-3.755-.834-6.178-1.077-2.393-2.406-3.943-3.985-4.649-1.58-.706-3.239-.667-4.977.115-1.739.782-2.872 2.008-3.4 3.68-.527 1.67-.25 3.707.831 6.11zm25.74 2.505l-7.443-21.663 4.255-1.462 13.837 11.42-4.97-14.467 4.063-1.396 7.443 21.664-4.389 1.508L88.476 17.69l4.854 14.127-4.064 1.396zm31.295-15.455l4.369-1.165c.513 1.446 1.236 2.451 2.168 3.015.933.564 2.093.732 3.48.503 1.47-.243 2.526-.737 3.169-1.482.642-.744.894-1.533.757-2.366-.088-.534-.32-.963-.695-1.286-.376-.324-.977-.56-1.804-.708-.565-.097-1.837-.225-3.817-.383-2.546-.203-4.385-.665-5.518-1.385-1.592-1.015-2.537-2.416-2.832-4.205-.19-1.15-.041-2.281.446-3.39.487-1.11 1.301-2.03 2.443-2.756 1.142-.727 2.58-1.234 4.318-1.52 2.836-.47 5.074-.2 6.713.807 1.64 1.007 2.666 2.542 3.08 4.606l-4.53.954c-.386-1.129-.943-1.895-1.67-2.297-.726-.403-1.731-.498-3.016-.286-1.326.219-2.319.663-2.98 1.331-.424.43-.589.937-.492 1.523.088.534.39.954.905 1.26.655.388 2.136.66 4.443.818 2.306.158 4.037.429 5.194.813 1.156.385 2.115 1.013 2.876 1.885.762.872 1.26 2.022 1.497 3.45.214 1.295.054 2.568-.479 3.817-.532 1.25-1.411 2.257-2.636 3.025-1.225.767-2.818 1.312-4.781 1.636-2.858.472-5.16.174-6.91-.894-1.75-1.067-2.982-2.84-3.698-5.32zm25.015 5.475L145.361.328l7.421-.07c2.813-.026 4.647.071 5.503.292 1.316.331 2.422 1.068 3.318 2.211.897 1.143 1.353 2.625 1.37 4.448.014 1.406-.23 2.591-.732 3.554-.5.963-1.142 1.722-1.923 2.276-.782.555-1.578.924-2.389 1.109-1.102.229-2.7.353-4.793.373l-3.016.029.082 8.64-4.625.044zm4.445-19.074l.062 6.5 2.53-.025c1.824-.017 3.041-.148 3.653-.394a3.037 3.037 0 0 0 1.435-1.138c.344-.514.513-1.11.507-1.786-.008-.834-.26-1.519-.754-2.056-.495-.537-1.118-.87-1.869-.998-.553-.099-1.663-.14-3.33-.125l-2.234.022zm18.984 9.85c.362-2.304 1.01-4.185 1.945-5.641a10.78 10.78 0 0 1 2.594-2.772c1.034-.776 2.115-1.303 3.244-1.579 1.504-.376 3.177-.42 5.019-.13 3.334.523 5.84 1.976 7.517 4.358 1.677 2.382 2.227 5.416 1.649 9.1-.573 3.653-2.015 6.356-4.325 8.107-2.31 1.752-5.126 2.367-8.45 1.846-3.365-.528-5.88-1.974-7.544-4.339-1.664-2.364-2.214-5.347-1.649-8.95zm4.733.585c-.402 2.562-.115 4.598.86 6.106.977 1.508 2.375 2.404 4.197 2.69 1.821.286 3.42-.136 4.793-1.265 1.374-1.128 2.266-3.005 2.678-5.63.407-2.592.142-4.616-.795-6.07-.937-1.455-2.347-2.33-4.23-2.625-1.884-.296-3.503.112-4.858 1.222-1.355 1.111-2.237 2.968-2.645 5.572zm19.894 17.21l6.965-21.822 9.274 2.96c2.332.744 3.964 1.481 4.895 2.21.932.73 1.555 1.697 1.87 2.902.316 1.205.268 2.452-.144 3.742-.523 1.638-1.436 2.836-2.739 3.596-1.303.76-2.956.972-4.96.639.775.86 1.367 1.72 1.775 2.584.408.862.867 2.31 1.377 4.343l1.306 5.107-5.27-1.681-1.67-5.766c-.59-2.058-1.022-3.374-1.298-3.948-.276-.575-.62-1.019-1.035-1.331-.414-.313-1.127-.63-2.14-.954l-.892-.285-2.908 9.11-4.406-1.407zm8.426-11.187l3.26 1.04c2.113.675 3.461 1.007 4.044.996a2.491 2.491 0 0 0 1.53-.528c.437-.342.76-.84.97-1.495.234-.734.227-1.39-.02-1.966-.248-.577-.71-1.039-1.387-1.386-.342-.164-1.405-.53-3.192-1.1l-3.438-1.098-1.767 5.537zm19.007 22.348l7.81-17.356-6.2-2.789 1.59-3.533 16.601 7.469-1.59 3.533-6.184-2.782-7.809 17.355-4.218-1.897zm13.804 7.364l11.07-20.053 4.05 2.235-11.071 20.053-4.05-2.235zm13.98 8.273l4.774-23.852 4.3 2.582-3.76 17.518 13.538-11.645 4.206 2.526-18.826 15.413-4.233-2.542zm13.905 9.59l13.278-18.665 13.84 9.845-2.247 3.158-10.07-7.165-2.944 4.138 9.37 6.667-2.237 3.144-9.37-6.666-3.614 5.08 10.427 7.418-2.237 3.145-14.196-10.1z" id="UNION-SPORTIVE" fill="#254E9D"/></g></g><g id="Bottom" transform="translate(-13 282)"><path d="M422.962 58H465v155.497L239 367 13 213.497V45.07L89.25 5.96l29.372 48.353 85.771-47.391 30.951 42.881 83.414-40.948 33.524 40.59L423 14.98 422.962 58z" id="Combined-Shape" fill="#244D9C"/><path id="Bretagne" stroke="#55B4E9" stroke-width="3" d="M265.329 319.258l8.131-8.936 24.313 2.988-15.123-10.487-47.204-4.283-13.899-8.96 11.05-8.44-3.858-10.96-28.981-3.273-18.558 14.217-21.331-31.055-67.464-27.877v15.51H72.812L29.34 193.996h48.116v-21.3l-26.931 11.596v-7.496L38 170.04l10.05-7.825 4.007-8.31 7.834 7.42H72.55v-11.327H35.338l9.594-38.404L93.51 86.35l18.143 16.006 4.817-19.706 52.181-20.804 63.958 22.635 20.703-20.24h18.545v18.611l44.033-2.546 1.494 26.164h46.389V90.69l-13.258-4.025V54.24l-.03-2.26"/><path d="M13.012 40.486l73.94-39.342s3.154-2.392 5.904 0 26.899 45.072 26.899 45.072l83.402-44.768s4.35-1.858 6.23 1.205c1.879 3.064 26.182 40.885 26.182 40.885l81.929-40.871s2.994-1.356 4.515.685c1.52 2.04 30.344 38.928 30.344 38.928L423 9.954s-.019 1.687-.008 2.927l.008.63c-.019 2.9-.019 8.702-.019 8.702l-66.545 30.142s-5.965 3.656-9.25 0c-3.284-3.655-29.257-37.499-29.257-37.499l-81.395 40.166s-4.59 1.862-8.237-3.472c-3.647-5.334-24.865-37.888-24.865-37.888s-82.666 44.394-83.172 44.394c-.505 0-4.666 1.026-7.086-3.405-2.42-4.43-25.5-42.646-25.5-42.646l-74.662 40.35V40.486z" id="Toit-forges" fill="#C4000A"/><g id="Lochrist-/-Inzinzac" transform="translate(117 89)"><path d="M25.898 91.327a35.357 35.357 0 0 0 0 9.734 14.32 14.32 0 0 0 6.517-7.689c1.815-5.56.742-8.917.742-8.917s-6.512 1.476-7.26 6.872zM30.46 78.527c-1.565.228-2.703 1.349-2.556 2.533.147 1.185 1.578 1.9 3.15 1.685 1.572-.215 2.94-1.577 2.767-2.736-.172-1.159-1.79-1.71-3.36-1.482z" id="Shape"/><path d="M25.898 91.327a35.357 35.357 0 0 0 0 9.734 14.32 14.32 0 0 0 6.517-7.689c1.815-5.56.742-8.917.742-8.917s-6.512 1.476-7.26 6.872zM124.25 79.515c-.518.089-2.263 1.837-3.835 4.471-1.968 3.281.096 4.997.773 5.118.678.12 3.304-.336 4.473-4.396 1.055-3.68-.9-5.282-1.412-5.193zM30.46 78.527c-1.565.228-2.703 1.349-2.556 2.533.147 1.185 1.578 1.9 3.15 1.685 1.572-.215 2.94-1.577 2.767-2.736-.172-1.159-1.79-1.71-3.36-1.482z" id="Shape"/><path d="M25.898 91.327a35.357 35.357 0 0 0 0 9.734 14.32 14.32 0 0 0 6.517-7.689c1.815-5.56.742-8.917.742-8.917s-6.512 1.476-7.26 6.872zM124.25 79.515c-.518.089-2.263 1.837-3.835 4.471-1.968 3.281.096 4.997.773 5.118.678.12 3.304-.336 4.473-4.396 1.055-3.68-.9-5.282-1.412-5.193z" id="Shape"/><path d="M50.946 79.09c3.648-4.078 7.028-5.997 5.508-2.229-1.521 3.769 1.399 3.997 1.399 3.997s4.415-.634 4.575-5.922c.134-4.433-6.025-3.357-8.71-2.407-3.335 1.185-11.59 8.05-13.526 6.239-5.035-4.712-14.467-1.679-16.403-.444-.691.422-1.334.916-1.917 1.476a.85.85 0 0 0-.23.766c.281 1.482 1.067 6.872-1.323 10.685-2.792 4.433-10.46 12.533-12.191 11.811-.563-.234-3.393-7.536 18.594-55.245 9.144-18.367 17.482-34.682 24.02-45.043C51.564.773 46.772-.69 45.916.348 41.444 5.82 25.003 35.226 19.61 45.758 14.984 54.796 5.495 79.103 5.42 79.274c0 0-3.349 9.963-4.87 16.904-1.52 6.941.716 10.69.716 10.69s1.56 1.717 6.154-.683c2.97-1.558 7.603-4.573 9.872-6.967 2.268-2.394 2.057.108 2.07 3.046 0 5.884 6 2.306 6 2.306s8.754-3.167 11.61-9.19c0 0 2.908-6.435 3.035-9.709.224-5.744 5.004-7.473 2.167 1.115-2.774 8.404-.199 13.933 3.265 11.438.907-.634 1.776-.938 2.05-1.704.276-.766-.044-2.185-.19-4.566-.282-4.624.006-8.785 3.648-12.863zm-18.53 14.276a14.32 14.32 0 0 1-6.518 7.689 35.357 35.357 0 0 1 0-9.735c.741-5.396 7.265-6.871 7.265-6.871s1.073 3.363-.741 8.923l-.007-.006zM31.08 82.713c-1.566.228-2.978-.525-3.15-1.684-.173-1.16.958-2.28 2.556-2.534 1.597-.253 3.195.298 3.386 1.457.192 1.159-1.22 2.54-2.792 2.768v-.007z" id="Shape" fill="#FFF"/><path d="M140.773 84.404c-4.39-4.838 1.68-23.37 10.224-28.069 5.533-3.046 48.997-22.129 48.997-22.129l-.625-2.009c-18.96 9.197-35.95 17.038-48.334 22.675-2.626 1.197-3.412 1.09 2.37-8.107 1.841-2.932 3.783-6.903 3.38-7.505-.402-.601-5.935-.633-7.418 1.444-2.16 2.983-7.124 17.98-9.948 19.494-2.556 1.381-9.726 4.136-9.726 4.136l.307 2.533c8.225-4.667 6.193-3.674 6.863-3.901.856-.285 3.195-.418-1.234 3.363-4.428 3.781-8.44 9.107-8.747 1.843-.307-7.264.409-7.106-.313-9.196-1.138-.887-5.68-.969-7.56.12-.99 2.02.09 4.541-1.226 9.595-1.63 6.239-7.815 14.206-9.77 14.618-.64.139-1.604-1.818.94-7.949 2.542-6.13 2.478-7.378 2.478-7.378s-4.217-1.267-6.294 1.45c-2.166 2.844-5.38 9.9-6.613 10.767-1.233.868-1.623-.456.926-7.644 2.55-7.189 1.112-7.657 1.112-7.657s-3.661 1.615-4.818.633c-1.156-.982-1.757-2.571-3.226-3.331-2.908-1.508-7.572 1.5-7.668 4.56-.096 3.059 1.54 2.989 2.428 2.824a26.72 26.72 0 0 0 2.748-.874c.899-.34 1.693-.576.69 1.9-1.004 2.477-2.665 7.72-3.898 10.222-1.33 2.698-7.336 10.995-8.217 9.279-.64-1.267 1.482-10.305 1.418-11.09-.287-3.521-5.514-1.97-5.75-1.602-6.627 10.608-8.486 8.949-3.087-3.135 5.4-12.084 11.272-24.32 7.917-25.631-2.505-.976-7.208 8.537-10.307 16.327-3.099 7.79-3.36 12.185-4.473 15.523-1.105 3.236-14.479 13.99-13.59 15.111.536.678 3.916-2.235 4.945-3.166 1.278-1.185 4.703-4.719 5.808-3.363.914 1.127-2.134 5.028-3.073 9a26.944 26.944 0 0 0-.639 7.41c.13 2.487 4.537-2.648 7.879-10.324 3.341-7.676 5.872-9.392 5.872-9.392s2.856-2.02 1.067 1.982c-1.687 3.8-1.093 5.542-.269 6.751.563.482 2.135 1.191 6.141-.791 4.006-1.983 9.642-8.056 13.214-18.658 2.205-6.53 3.06-7.695 3.438-7.898.377-.203 2.172-1.102 1.636 1.811a26.86 26.86 0 0 1-2.94 8.335c-1.335 2.248-1.84 3.167-2.179 4.389-.453 1.672-1.105 7.828 1.317 7.879 2.97.063 9.227-10.83 8.792-7.6-.434 3.23-1.144 8.233 5.355 5.25 4.472-2.046 6.798-5.516 8.025-7.423 1.79-2.774 6.83-10.766 7.936-7.6 2.288 7.087-9.297 11.495-6.019 17.278 2.083 3.68 10.345.373 12.55-3.971 2.012-3.978-.147-8.234.134-10.85 1.08-2.26 4.275-3.97 4.275-3.97s2.332-1.343.99 1.532c-2.888 6.194-1.176 12.882-.23 13.934 3.374 3.85 13.144-.539 19.808-4.11C166.217 75.81 175.86 59.33 175.86 59.33l-7.175-.596a43.218 43.218 0 0 1-8.18 13.782c-6.696 7.365-17.654 15.029-19.73 11.887zm-15.118.298c-1.17 4.06-3.872 4.503-4.473 4.395-.6-.107-2.741-1.836-.773-5.117 1.578-2.628 3.316-4.383 3.834-4.471.517-.089 2.473 1.52 1.412 5.193z" id="Shape" fill="#FFF"/><path d="M113.738 61.32c1.917-1.445 2.16-4.206 1.75-4.618-.408-.411-4.389-.392-6.07 1.793-1.24 1.615-.85 4.433-.217 4.895.492.355 2.595-.627 4.537-2.07zM8.147 122.069c-.307-.83 13.367-7.467 19.853-10.298 7.24-3.167 15.431-6.378 17.642-7.17 2.767-.981 4.754-1.798 2.364 2.698-2.39 4.497-3.156 5.903-3.833 7.404-3.068 6.967 2.102 3.61 9.654-2.59 4.972-4.085 6.448-5.428 7.03-5.44.274 0 2.082.987.894 1.988-.844.71-1.438 1.431-1.106 1.856.428.55 2 1.418.41 2.66-.96.747-1.79 1.653-2.876 1.266-1.086-.386.121-2.419-.409-2.634-1.546-.634-14.48 11.355-17.45 10.133-1.413-.589.562-5.782 2.031-8.55.429-.804 4.16-6.663 3.547-7.252-.441-.424-12.678 5.206-17.253 7.15-5.15 2.167-19.968 10.204-20.498 8.779zM157.802 88.458c-.556-.634-7.668 5.402-10.933 7.296-3.265 1.893-9.01 4.959-9.955 3.996-.64-.633-.333-2.286.14-3.059 2.339-3.8 4.422-3.23 4.41-4.376-.25-.247-2.416-.203-3.234.329-1.4.906-5.029 8.41-6.109 7.08-.607-.747 2.684-4.547 0-6.225-1.322-.836-9.584 5.58-13.68 5.32-1.054-.07-2.748-1.267-2.428-1.9.32-.633.728-1.007.811-1.267.128-.443.243-1.938-.262-2.368-.332-.285-1.175 0-1.457-.254-.434-.373-.057-1.494-.364-1.9-.306-.405-1.668-.981-3.195.982s-1.795 6.625-4.409 7.644c-1.674.634-1.808.634-2.236 0-.217-.31-.064-1.266-.256-1.621-.115-.222-1.584-.336-2.064.108-.594.544-1.706 1.418-2.62.772-.344-.247-.3-.81-.836-.728-1.496.234-4.377 4.275-6.07 5.37-1.918 1.267-3.272-.278-.34-2.007.716-.418.352-1.57.058-1.78-.735-.519-1.501-.291-5.029 2.534-3.527 2.824-6.562 6.7-8.945 5.408-1.476-.804-.211-2.647 1.233-3.325 1.917-.893 1.233-4.097 1.054-4.433-.249-.456-1.38-.272-1.789-.52-.409-.246.064-2.096-.358-2.343-.421-.247-1.584.108-2.856 1.647a34.402 34.402 0 0 0-2.409 3.395c-.733 1.178-1.476 3.318-2.262 4.655-2.064 3.515-5.112 3.008-3.898 1.78 1.214-1.23 1.138-2.167.563-2.426-.754-.342-2.556.703-3.502 2.16-.946 1.456-.639 1.665-.965 2.146-.14.197-.683.292-.78.57a.396.396 0 0 0 .076.36c.082.101.21.156.34.147 1.527-.545 1.118 1.514 1.572 1.843.262.19 2.486-.532 4.415-2.134 2.467-2.046 4.825-6.929 8.671-9.361 1.802-1.14 1.074 1.317-1.808 4.433-1.227 1.115-2.269 4.712-1.534 4.7.467-.228 1.572-1.406 2.205-1.685.524-.234.78.43.773.69-1.821 2.838-8.307 7.075-10.863 9.589-3.834 3.724-8.536 9.988-8.032 11.4 1.387 3.901 11.061-1.165 14.914-4.649 3.853-3.483 8.556-9.19 8.6-15.833 0-2.958 4.288-5.795 5.113-6.105.364-.133 1.278-.165 1.322.209.198 1.165-2.703 3.49.32 2.964a8.563 8.563 0 0 0 3.63-2.033c1.788-1.9 4.587-3.997 4.472-2.242-.115 1.754.492 1.539.492 1.539a3.023 3.023 0 0 0 1.796-1.736c.447-1.368 1.214-2.4 2.05-2.748a.996.996 0 0 1 .991.323c.17.789.42 1.56.748 2.299.147.24.773 0 1.13-.102 1.432-.386 3.72-2.172 4.73-3.54 3.245-4.389 4.363-4.23 4.874-4.009.294.127.269.754.141 1.045-.486 1.051-1.693 2.869-2.684 3.496-.99.627-1.22 1.463-.99 1.957.147.323.92.633 2.045.14 1.124-.495 1.47-1.9 2.115-2.382a2.996 2.996 0 0 1 2.044-.07c.4.227.621.67.563 1.121-7.84 5.586-14.888 13.123-16.537 16.036-3.4 6.023-2.556 10.431 1.157 9.38 3.712-1.051 13.099-6.473 16.21-13.072 2.94-6.245 2.76-11.4 2.978-11.989.294-.817 1.7-1.773 2.473-2.172.25-.127.99-.171 1.13.07.64 1.05-1.974 3.869-.843 4.781 1.131.912 2.754-.633 2.754-.633s.422-.558 1.834-.418c1.412.139 1.7.779 2.307.69.607-.089 1.278-2.115 2.505-2.299 2.21-.323 4.421 1.9 4.792 1.298 1.022-1.634 4.3-2.533 9.738-5.351 5.438-2.819 10.594-8.208 10.243-8.607zm-83.796 34.706c-3.68 4.434-9.233 5.922-10.651 5.542-.41-1.33.492-3.635 5.463-8.867 4.971-5.231 9.866-8.113 10.581-7.422.505 2.73-1.501 6.054-5.393 10.747zm39.24-6.282c-4.02 4.433-8.134 6.808-10.78 7.536-.639.178-1.795 0-2.006-1.71-.358-2.92 4.16-8.233 5.834-10.545 2.71-3.698 11.265-9.95 11.712-9.063.607 1.204.045 8.512-4.76 13.782zm16.147-17.86c-.562 1.007-2.051 2.121-2.633 1.678-.39-.298-.172-1.07.64-2.318.734-1.146 1.673-2.787 2.46-2.42.785.368.089 2.04-.467 3.06z" id="Shape" fill="#FFF"/><path d="M96.639 93.1c.438.6.325 1.435-.256 1.9-.607.602-1.987.994-2.447.538-.46-.456-.275-1.741.332-2.343a1.982 1.982 0 0 1 2.371-.095zM51.042 98.268c.437.6.325 1.435-.256 1.9-.607.602-1.987.994-2.447.538-.46-.456-.275-1.741.332-2.343a1.982 1.982 0 0 1 2.37-.095z" id="Shape" fill="#FFF"/></g><g id="Petit-ballon" transform="translate(144 214)"><circle id="Oval-1" fill="#FFF" cx="31.5" cy="31.5" r="31.5"/><g id="Group-3" transform="translate(6.848 5.935)"><use id="Oval-2" stroke="#234E9C" mask="url(#mask-4)" stroke-width="2.6" xlink:href="#path-3"/><path d="M11.641 5.707l10.044 15.521" id="Line" stroke="#294C9C" stroke-width="1.3" stroke-linecap="square"/><path d="M38.251 6.844l-10.363 15.31" id="Line-Copy" stroke="#294C9C" stroke-width="1.3" stroke-linecap="square"/><path d="M16.663 28.99L6.62 31.727" id="Line-Copy-2" stroke="#294C9C" stroke-width="1.3" stroke-linecap="square"/><path d="M25.337 35.837l.456 9.13" id="Line-Copy-3" stroke="#294C9C" stroke-width="1.3" stroke-linecap="square"/><path d="M34.467 29.446l8.674 3.652" id="Line-Copy-4" stroke="#294C9C" stroke-width="1.3" stroke-linecap="square"/></g><path d="M28.112 62.908l-4.147-7.534 8.645-4.882 9.288 4.387-2.009 6.902s-2.44 1.127-6.465 1.127" id="Path-10" fill="#C3000A"/><path id="Path-12" fill="#C4010A" d="M57.687 49.742l-7.75-.027-.22-10.867 7.724-5.812 5.28 5.588z"/><path d="M50.267 6.233c1.551 1.152 4.602 4.082 4.602 4.082l-1.147 7.726-11.589-.852-4.475-10.304 7.502-3.784s3.422 1.88 5.107 3.132z" id="Path-13" fill="#C4010A"/><path d="M13.05 5.896c-1.523 1.108-4.09 3.6-4.09 3.6l2.062 8.609 10.849-1.24 4.188-9.745-8.447-3.923s-3.2 1.707-4.563 2.699z" id="Path-14" fill="#C4000A"/><path d="M2.652 44.353C1.715 42.186.753 38.432.753 38.432l6.41-7.119 7.59 5.99-1.376 10.71-7.995 1.113s-2.124-3.375-2.73-4.773z" id="Path-11" fill="#C4000A"/><circle id="Oval-1-Copy" stroke="#274C9C" cx="31.5" cy="31.5" r="31.5"/><path id="Polygon-1" fill="#C4000A" transform="rotate(-35 31.386 31.937)" d="M31.879 22.784l9.06 6.164-3.012 12.143H25.98L21.833 29.35z"/></g></g><g id="Bandeau-droite" transform="translate(410)"><path id="Rectangle-105" fill="#FFF" d="M0 0h42v491H0z"/><g id="Rectangles-rouges" transform="translate(5 1)" fill="#C5010A"><g id="Group" transform="translate(0 330)"><path id="Rectangle-3" d="M0 0h11v5H0z"/><path id="Rectangle-3-Copy" d="M13 0h11v5H13z"/><path id="Rectangle-3-Copy-2" d="M26 0h11v5H26z"/></g><g id="Group-Copy-18" transform="translate(0 150)"><path id="Rectangle-3" d="M0 0h11v5H0z"/><path id="Rectangle-3-Copy" d="M13 0h11v5H13z"/><path id="Rectangle-3-Copy-2" d="M26 0h11v5H26z"/></g><g id="Group-Copy-6" transform="translate(0 270)"><path id="Rectangle-3" d="M0 0h11v5H0z"/><path id="Rectangle-3-Copy" d="M13 0h11v5H13z"/><path id="Rectangle-3-Copy-2" d="M26 0h11v5H26z"/></g><g id="Group-Copy-19" transform="translate(0 90)"><path id="Rectangle-3" d="M0 0h11v5H0z"/><path id="Rectangle-3-Copy" d="M13 0h11v5H13z"/><path id="Rectangle-3-Copy-2" d="M26 0h11v5H26z"/></g><g id="Group-Copy-12" transform="translate(0 210)"><path id="Rectangle-3" d="M0 0h11v5H0z"/><path id="Rectangle-3-Copy" d="M13 0h11v5H13z"/><path id="Rectangle-3-Copy-2" d="M26 0h11v5H26z"/></g><g id="Group-Copy-20" transform="translate(0 30)"><path id="Rectangle-3" d="M0 0h11v5H0z"/><path id="Rectangle-3-Copy" d="M13 0h11v5H13z"/><path id="Rectangle-3-Copy-2" d="M26 0h11v5H26z"/></g><g id="Group-Copy-3" transform="translate(0 300)"><path id="Rectangle-3" d="M0 0h11v5H0z"/><path id="Rectangle-3-Copy" d="M13 0h11v5H13z"/><path id="Rectangle-3-Copy-2" d="M26 0h11v5H26z"/></g><g id="Group-Copy-21" transform="translate(0 120)"><path id="Rectangle-3" d="M0 0h11v5H0z"/><path id="Rectangle-3-Copy" d="M13 0h11v5H13z"/><path id="Rectangle-3-Copy-2" d="M26 0h11v5H26z"/></g><g id="Group-Copy-7" transform="translate(0 240)"><path id="Rectangle-3" d="M0 0h11v5H0z"/><path id="Rectangle-3-Copy" d="M13 0h11v5H13z"/><path id="Rectangle-3-Copy-2" d="M26 0h11v5H26z"/></g><g id="Group-Copy-22" transform="translate(0 60)"><path id="Rectangle-3" d="M0 0h11v5H0z"/><path id="Rectangle-3-Copy" d="M13 0h11v5H13z"/><path id="Rectangle-3-Copy-2" d="M26 0h11v5H26z"/></g><g id="Group-Copy-13" transform="translate(0 180)"><path id="Rectangle-3" d="M0 0h11v5H0z"/><path id="Rectangle-3-Copy" d="M13 0h11v5H13z"/><path id="Rectangle-3-Copy-2" d="M26 0h11v5H26z"/></g><g id="Group-Copy-23"><path id="Rectangle-3" d="M0 0h11v5H0z"/><path id="Rectangle-3-Copy" d="M13 0h11v5H13z"/><path id="Rectangle-3-Copy-2" d="M26 0h11v5H26z"/></g><g id="Group-Copy" transform="translate(0 320)"><path id="Rectangle-3" d="M0 0h11v5H0z"/><path id="Rectangle-3-Copy" d="M13 0h11v5H13z"/><path id="Rectangle-3-Copy-2" d="M26 0h11v5H26z"/></g><g id="Group-Copy-24" transform="translate(0 140)"><path id="Rectangle-3" d="M0 0h11v5H0z"/><path id="Rectangle-3-Copy" d="M13 0h11v5H13z"/><path id="Rectangle-3-Copy-2" d="M26 0h11v5H26z"/></g><g id="Group-Copy-8" transform="translate(0 260)"><path id="Rectangle-3" d="M0 0h11v5H0z"/><path id="Rectangle-3-Copy" d="M13 0h11v5H13z"/><path id="Rectangle-3-Copy-2" d="M26 0h11v5H26z"/></g><g id="Group-Copy-25" transform="translate(0 80)"><path id="Rectangle-3" d="M0 0h11v5H0z"/><path id="Rectangle-3-Copy" d="M13 0h11v5H13z"/><path id="Rectangle-3-Copy-2" d="M26 0h11v5H26z"/></g><g id="Group-Copy-14" transform="translate(0 200)"><path id="Rectangle-3" d="M0 0h11v5H0z"/><path id="Rectangle-3-Copy" d="M13 0h11v5H13z"/><path id="Rectangle-3-Copy-2" d="M26 0h11v5H26z"/></g><g id="Group-Copy-26" transform="translate(0 20)"><path id="Rectangle-3" d="M0 0h11v5H0z"/><path id="Rectangle-3-Copy" d="M13 0h11v5H13z"/><path id="Rectangle-3-Copy-2" d="M26 0h11v5H26z"/></g><g id="Group-Copy-4" transform="translate(0 290)"><path id="Rectangle-3" d="M0 0h11v5H0z"/><path id="Rectangle-3-Copy" d="M13 0h11v5H13z"/><path id="Rectangle-3-Copy-2" d="M26 0h11v5H26z"/></g><g id="Group-Copy-27" transform="translate(0 110)"><path id="Rectangle-3" d="M0 0h11v5H0z"/><path id="Rectangle-3-Copy" d="M13 0h11v5H13z"/><path id="Rectangle-3-Copy-2" d="M26 0h11v5H26z"/></g><g id="Group-Copy-9" transform="translate(0 230)"><path id="Rectangle-3" d="M0 0h11v5H0z"/><path id="Rectangle-3-Copy" d="M13 0h11v5H13z"/><path id="Rectangle-3-Copy-2" d="M26 0h11v5H26z"/></g><g id="Group-Copy-28" transform="translate(0 50)"><path id="Rectangle-3" d="M0 0h11v5H0z"/><path id="Rectangle-3-Copy" d="M13 0h11v5H13z"/><path id="Rectangle-3-Copy-2" d="M26 0h11v5H26z"/></g><g id="Group-Copy-15" transform="translate(0 170)"><path id="Rectangle-3" d="M0 0h11v5H0z"/><path id="Rectangle-3-Copy" d="M13 0h11v5H13z"/><path id="Rectangle-3-Copy-2" d="M26 0h11v5H26z"/></g><g id="Group-Copy-2" transform="translate(0 310)"><path id="Rectangle-3" d="M0 0h11v5H0z"/><path id="Rectangle-3-Copy" d="M13 0h11v5H13z"/><path id="Rectangle-3-Copy-2" d="M26 0h11v5H26z"/></g><g id="Group-Copy-30" transform="translate(0 130)"><path id="Rectangle-3" d="M0 0h11v5H0z"/><path id="Rectangle-3-Copy" d="M13 0h11v5H13z"/><path id="Rectangle-3-Copy-2" d="M26 0h11v5H26z"/></g><g id="Group-Copy-10" transform="translate(0 250)"><path id="Rectangle-3" d="M0 0h11v5H0z"/><path id="Rectangle-3-Copy" d="M13 0h11v5H13z"/><path id="Rectangle-3-Copy-2" d="M26 0h11v5H26z"/></g><g id="Group-Copy-31" transform="translate(0 70)"><path id="Rectangle-3" d="M0 0h11v5H0z"/><path id="Rectangle-3-Copy" d="M13 0h11v5H13z"/><path id="Rectangle-3-Copy-2" d="M26 0h11v5H26z"/></g><g id="Group-Copy-16" transform="translate(0 190)"><path id="Rectangle-3" d="M0 0h11v5H0z"/><path id="Rectangle-3-Copy" d="M13 0h11v5H13z"/><path id="Rectangle-3-Copy-2" d="M26 0h11v5H26z"/></g><g id="Group-Copy-32" transform="translate(0 10)"><path id="Rectangle-3" d="M0 0h11v5H0z"/><path id="Rectangle-3-Copy" d="M13 0h11v5H13z"/><path id="Rectangle-3-Copy-2" d="M26 0h11v5H26z"/></g><g id="Group-Copy-5" transform="translate(0 280)"><path id="Rectangle-3" d="M0 0h11v5H0z"/><path id="Rectangle-3-Copy" d="M13 0h11v5H13z"/><path id="Rectangle-3-Copy-2" d="M26 0h11v5H26z"/></g><g id="Group-Copy-33" transform="translate(0 100)"><path id="Rectangle-3" d="M0 0h11v5H0z"/><path id="Rectangle-3-Copy" d="M13 0h11v5H13z"/><path id="Rectangle-3-Copy-2" d="M26 0h11v5H26z"/></g><g id="Group-Copy-11" transform="translate(0 220)"><path id="Rectangle-3" d="M0 0h11v5H0z"/><path id="Rectangle-3-Copy" d="M13 0h11v5H13z"/><path id="Rectangle-3-Copy-2" d="M26 0h11v5H26z"/></g><g id="Group-Copy-34" transform="translate(0 40)"><path id="Rectangle-3" d="M0 0h11v5H0z"/><path id="Rectangle-3-Copy" d="M13 0h11v5H13z"/><path id="Rectangle-3-Copy-2" d="M26 0h11v5H26z"/></g><g id="Group-Copy-17" transform="translate(0 160)"><path id="Rectangle-3" d="M0 0h11v5H0z"/><path id="Rectangle-3-Copy" d="M13 0h11v5H13z"/><path id="Rectangle-3-Copy-2" d="M26 0h11v5H26z"/></g><g id="Group-Copy-17" transform="translate(0 480)"><path id="Rectangle-3" d="M0 0h11v5H0z"/><path id="Rectangle-3-Copy" d="M13 0h11v5H13z"/><path id="Rectangle-3-Copy-2" d="M26 0h11v5H26z"/></g><g id="Group-Copy-36" transform="translate(0 450)"><path id="Rectangle-3" d="M0 0h11v5H0z"/><path id="Rectangle-3-Copy" d="M13 0h11v5H13z"/><path id="Rectangle-3-Copy-2" d="M26 0h11v5H26z"/></g><g id="Group-Copy-39" transform="translate(0 420)"><path id="Rectangle-3" d="M0 0h11v5H0z"/><path id="Rectangle-3-Copy" d="M13 0h11v5H13z"/><path id="Rectangle-3-Copy-2" d="M26 0h11v5H26z"/></g><g id="Group-Copy-42" transform="translate(0 390)"><path id="Rectangle-3" d="M0 0h11v5H0z"/><path id="Rectangle-3-Copy" d="M13 0h11v5H13z"/><path id="Rectangle-3-Copy-2" d="M26 0h11v5H26z"/></g><g id="Group-Copy-45" transform="translate(0 360)"><path id="Rectangle-3" d="M0 0h11v5H0z"/><path id="Rectangle-3-Copy" d="M13 0h11v5H13z"/><path id="Rectangle-3-Copy-2" d="M26 0h11v5H26z"/></g><g id="Group-Copy-29" transform="translate(0 470)"><path id="Rectangle-3" d="M0 0h11v5H0z"/><path id="Rectangle-3-Copy" d="M13 0h11v5H13z"/><path id="Rectangle-3-Copy-2" d="M26 0h11v5H26z"/></g><g id="Group-Copy-37" transform="translate(0 440)"><path id="Rectangle-3" d="M0 0h11v5H0z"/><path id="Rectangle-3-Copy" d="M13 0h11v5H13z"/><path id="Rectangle-3-Copy-2" d="M26 0h11v5H26z"/></g><g id="Group-Copy-40" transform="translate(0 410)"><path id="Rectangle-3" d="M0 0h11v5H0z"/><path id="Rectangle-3-Copy" d="M13 0h11v5H13z"/><path id="Rectangle-3-Copy-2" d="M26 0h11v5H26z"/></g><g id="Group-Copy-43" transform="translate(0 380)"><path id="Rectangle-3" d="M0 0h11v5H0z"/><path id="Rectangle-3-Copy" d="M13 0h11v5H13z"/><path id="Rectangle-3-Copy-2" d="M26 0h11v5H26z"/></g><g id="Group-Copy-46" transform="translate(0 350)"><path id="Rectangle-3" d="M0 0h11v5H0z"/><path id="Rectangle-3-Copy" d="M13 0h11v5H13z"/><path id="Rectangle-3-Copy-2" d="M26 0h11v5H26z"/></g><g id="Group-Copy-35" transform="translate(0 460)"><path id="Rectangle-3" d="M0 0h11v5H0z"/><path id="Rectangle-3-Copy" d="M13 0h11v5H13z"/><path id="Rectangle-3-Copy-2" d="M26 0h11v5H26z"/></g><g id="Group-Copy-38" transform="translate(0 430)"><path id="Rectangle-3" d="M0 0h11v5H0z"/><path id="Rectangle-3-Copy" d="M13 0h11v5H13z"/><path id="Rectangle-3-Copy-2" d="M26 0h11v5H26z"/></g><g id="Group-Copy-41" transform="translate(0 400)"><path id="Rectangle-3" d="M0 0h11v5H0z"/><path id="Rectangle-3-Copy" d="M13 0h11v5H13z"/><path id="Rectangle-3-Copy-2" d="M26 0h11v5H26z"/></g><g id="Group-Copy-44" transform="translate(0 370)"><path id="Rectangle-3" d="M0 0h11v5H0z"/><path id="Rectangle-3-Copy" d="M13 0h11v5H13z"/><path id="Rectangle-3-Copy-2" d="M26 0h11v5H26z"/></g><g id="Group-Copy-47" transform="translate(0 340)"><path id="Rectangle-3" d="M0 0h11v5H0z"/><path id="Rectangle-3-Copy" d="M13 0h11v5H13z"/><path id="Rectangle-3-Copy-2" d="M26 0h11v5H26z"/></g></g></g></g></g></svg>